<?xml version="1.0" encoding="UTF-8"?>
<svg width="512" height="512" version="1.1" viewBox="0 0 512 512" xmlns="http://www.w3.org/2000/svg">
 <title>favicon</title>
 <g>
  <g fill="none" stroke="#198754" stroke-width="16.07">
   <ellipse cx="136" cy="256" rx="119.96" ry="119.96"/>
   <circle cx="256" cy="376" r="119.96"/>
   <ellipse cx="256" cy="136" rx="119.96" ry="119.96"/>
   <ellipse cx="376" cy="256" rx="119.96" ry="119.96"/>
  </g>
  <path d="m256 16.035a119.96 119.96 0 0 0-119.96 119.96 119.96 119.96 0 0 0 0.00195 0.03516 119.96 119.96 0 0 1 119.93 119.93 119.96 119.96 0 0 0 0.03516 0.00195 119.96 119.96 0 0 0 0.03711-0.00195 119.96 119.96 0 0 1 119.93-119.93 119.96 119.96 0 0 0 0.00195-0.03711 119.96 119.96 0 0 0-119.96-119.96zm119.96 120a119.96 119.96 0 0 1-119.93 119.93 119.96 119.96 0 0 0-0.00195 0.03711 119.96 119.96 0 0 0 0.00195 0.03516 119.96 119.96 0 0 1 119.93 119.93 119.96 119.96 0 0 0 0.03516 0.00195 119.96 119.96 0 0 0 119.96-119.96 119.96 119.96 0 0 0-119.96-119.96 119.96 119.96 0 0 0-0.03711 0.00195zm0.00195 239.93a119.96 119.96 0 0 1-119.93-119.93 119.96 119.96 0 0 0-0.03711 0 119.96 119.96 0 0 0-0.03711 0.00195 119.96 119.96 0 0 1-119.93 119.93 119.96 119.96 0 0 0-0.00195 0.03711 119.96 119.96 0 0 0 119.96 119.96 119.96 119.96 0 0 0 119.96-119.96 119.96 119.96 0 0 0 0-0.03711zm-239.93 0a119.96 119.96 0 0 1 119.93-119.93 119.96 119.96 0 0 0 0.00195-0.03711 119.96 119.96 0 0 0 0-0.03711 119.96 119.96 0 0 1-119.93-119.93 119.96 119.96 0 0 0-0.03711 0 119.96 119.96 0 0 0-119.96 119.96 119.96 119.96 0 0 0 119.96 119.96 119.96 119.96 0 0 0 0.03711-0.00195z" fill="#4ede9b"/>
 </g>
</svg>
